<svg width="103" height="143" fill="none" xmlns="http://www.w3.org/2000/svg"><circle cx="48.5" cy="39.5" r="39.5" fill="#3AC948"/><circle cx="63.5" cy="78.5" r="39.5" fill="#6381CE"/><circle cx="48.5" cy="103.5" r="39.5" fill="#D35EC1"/><circle cx="24.5" cy="53.5" r="24.5" fill="#E65959"/><circle cx="24.5" cy="96.5" r="24.5" fill="#D0E64D"/><path d="M13.83 49.69v2.4c0 2.6-.19 5.07-.57 7.41-.38 2.32-1.2 4.4-2.46 6.24l-.39-.36c.74-1.88 1.21-3.86 1.41-5.94.2-2.08.3-4.53.3-7.35v-2.13c0-.94-.04-1.7-.12-2.28l1.41.75-.27-.45c1.24-.58 2.38-1.25 3.42-2.01-.98-.64-1.99-1.2-3.03-1.68l.24-.39c1.6.28 2.94.66 4.02 1.14.6-.52 1.13-1.03 1.59-1.53h-3.27c-1.42.02-2.92.16-4.5.42l-.78-1.53c1.02.12 2.26.2 3.72.24h1.74c0-1.52-.07-2.76-.21-3.72 1.04.32 1.76.58 2.16.78.42.18.63.34.63.48 0 .1-.09.2-.27.3l-.54.33v1.83h2.7l.6-.84c.08-.1.17-.22.27-.36.12-.16.22-.28.3-.36.08-.08.16-.12.24-.12.12 0 .36.15.72.45.36.28.69.59.99.93.32.32.48.55.48.69-.06.32-.3.48-.72.48h-3.45l1.56.96c-.12.18-.29.27-.51.27l-.48-.06c-.3.26-.81.65-1.53 1.17.5.34.87.68 1.11 1.02.24.34.36.65.36.93 0 .2-.06.36-.18.48-.12.1-.29.15-.51.15l-.36-.06c-.44-.5-1.08-1.04-1.92-1.62-1.34.7-2.73 1.28-4.17 1.74l.63.3h6.57l.51-.78c.04-.06.11-.17.21-.33.1-.16.19-.27.27-.33.08-.08.16-.12.24-.12.18 0 .56.28 1.14.84.6.54.9.92.9 1.14-.06.32-.3.48-.72.48h-3.18l1.02.84c.64.3.96.54.96.72 0 .08-.11.14-.33.18l-.48.03c-.88.76-1.91 1.49-3.09 2.19s-2.35 1.29-3.51 1.77l-.39-.51c.14-.08.6-.39 1.38-.93.78-.56 1.54-1.23 2.28-2.01.74-.8 1.32-1.56 1.74-2.28h-5.88Zm21.21-10.32c.12 0 .38.16.78.48.4.3.77.63 1.11.99.34.34.51.58.51.72-.06.32-.3.48-.72.48h-5.46c-.64 1.46-1.25 2.63-1.83 3.51h4.02l.45-.63c.06-.06.15-.18.27-.36.14-.18.27-.27.39-.27.2 0 .58.26 1.14.78.58.52.87.89.87 1.11-.2.24-.56.41-1.08.51v6.18c.04 2.48.12 4.83.24 7.05-.14.18-.4.36-.78.54-.36.18-.69.27-.99.27h-.24v-1.05h-6.99v.75c0 .14-.16.29-.48.45-.3.16-.64.24-1.02.24-.14 0-.27-.06-.39-.18a.72.72 0 0 1-.15-.42c.14-1.94.23-4.07.27-6.39v-3.51c0-2.52-.13-4.57-.39-6.15l2.31 1.08h1.65l.15-.9.39-2.61h-1.65c-.96.02-1.96.16-3 .42l-.78-1.53c1.1.12 2.43.2 3.99.24h5.97l.6-.9.27-.36c.12-.18.22-.31.3-.39.1-.1.19-.15.27-.15Zm-1.32 10.5v-3.42h-6.99v3.42h6.99Zm-6.99 4.44h6.99v-3.57h-6.99v3.57Zm-5.13.45c.64.3.96.54.96.72 0 .1-.11.15-.33.15l-.51.03c-.94.9-2.06 1.75-3.36 2.55-1.3.8-2.63 1.47-3.99 2.01l-.36-.51c.76-.44 1.47-.92 2.13-1.44.8-.6 1.59-1.33 2.37-2.19.78-.86 1.36-1.66 1.74-2.4l1.35 1.08Zm5.13 4.05h6.99v-3.63h-6.99v3.63Zm-3.99 1.26c-2.46 2.76-5.72 4.77-9.78 6.03l-.27-.57c1.62-.74 3.09-1.62 4.41-2.64.78-.6 1.54-1.36 2.28-2.28.74-.92 1.28-1.77 1.62-2.55l1.5 1.05c.72.3 1.08.54 1.08.72 0 .08-.11.14-.33.18l-.51.06Zm6.27 1.17c.72.34 1.08.6 1.08.78 0 .08-.1.12-.3.12h-.45c-.84.82-2.01 1.62-3.51 2.4-1.48.8-2.96 1.42-4.44 1.86l-.27-.42c.62-.32 1.39-.8 2.31-1.44.86-.58 1.67-1.28 2.43-2.1.78-.82 1.34-1.59 1.68-2.31l1.47 1.11Zm2.28-.6c1.28.4 2.32.87 3.12 1.41.82.54 1.41 1.09 1.77 1.65.36.56.54 1.07.54 1.53 0 .32-.08.58-.24.78-.16.2-.37.3-.63.3-.2 0-.43-.08-.69-.24-.28-.8-.83-1.68-1.65-2.64-.82-.96-1.66-1.8-2.52-2.52l.3-.27Zm.45 29.29c.06-.08.13-.19.21-.33.1-.14.18-.24.24-.3.08-.06.16-.09.24-.09.12 0 .36.14.72.42.38.28.73.59 1.05.93.32.32.48.55.48.69-.1.12-.26.24-.48.36-.22.12-.47.21-.75.27v2.79c.06 2.32.13 4.11.21 5.37-.12.16-.38.33-.78.51-.38.16-.72.24-1.02.24-.14 0-.25-.06-.33-.18a.928.928 0 0 1-.09-.42l.12-.72v-.66H16.38v6.51c0 .56.23.94.69 1.14.48.18 1.23.27 2.25.27h11.52c1.04 0 1.78-.05 2.22-.15.46-.12.8-.37 1.02-.75.18-.32.39-.91.63-1.77.26-.88.48-1.75.66-2.61h.39l.03 4.65c.54.16.89.29 1.05.39.16.1.24.25.24.45 0 .54-.44.94-1.32 1.2-.88.28-2.47.42-4.77.42H19.47c-1.74 0-3.01-.24-3.81-.72-.78-.48-1.17-1.34-1.17-2.58V91.55c-1.26 1.26-2.49 2.28-3.69 3.06l-.36-.39c1.02-.86 2.03-1.91 3.03-3.15s1.92-2.56 2.76-3.96c.52-.86.99-1.82 1.41-2.88.44-1.08.74-2.03.9-2.85 2.02.6 3.03 1.01 3.03 1.23 0 .08-.09.14-.27.18l-.54.12c-.5.94-.94 1.71-1.32 2.31h6.57l.54-.63c.06-.06.14-.15.24-.27.12-.14.22-.24.3-.3.08-.06.16-.09.24-.09.18 0 .57.3 1.17.9.62.58.93.98.93 1.2-.16.16-.54.26-1.14.3-1.66 2-3.04 3.43-4.14 4.29h7.14l.45-.69Zm-8.25.69c.8-1.12 1.63-2.63 2.49-4.53H18.9c-1.1 1.66-2.15 3.03-3.15 4.11l.96.42h6.78Zm-.57.87h-6.54v6.45h6.54v-6.45Zm8.64 6.45v-6.45h-6.78v6.45h6.78Z" fill="#fff"/></svg>